
      <svg data-logo="logo" xmlns="http://www.w3.org/2000/svg" viewBox="0 0 331.1800231933594 42.7">
        <g id="logogram" transform="
    translate(0, 1.3500000000000014)
    rotate(0 20 20)
    
  "><path d="M33.724 36.5809C37.7426 32.5622 40.0003 27.1118 40.0003 21.4286C40.0003 15.7454 37.7426 10.2949 33.724 6.27629C29.7054 2.25765 24.2549 1.02188e-06 18.5717 0C12.8885 -1.02188e-06 7.43807 2.25764 3.41943 6.27628L10.4905 13.3473C11.6063 14.4631 13.4081 14.4074 14.8276 13.7181C15.9836 13.1568 17.2622 12.8571 18.5717 12.8571C20.845 12.8571 23.0252 13.7602 24.6326 15.3677C26.2401 16.9751 27.1431 19.1553 27.1431 21.4286C27.1431 22.7381 26.8435 24.0167 26.2822 25.1727C25.5929 26.5922 25.5372 28.394 26.6529 29.5098L33.724 36.5809Z" fill="#297AFF"/><path d="M30 40H19.5098C17.9943 40 16.5408 39.398 15.4692 38.3263L1.67368 24.5308C0.60204 23.4592 0 22.0057 0 20.4902V10L30 40Z" fill="#34C2FF"/><path d="M10.7143 39.9999H4.28571C1.91878 39.9999 0 38.0812 0 35.7142V29.2856L10.7143 39.9999Z" fill="#34C2FF"/></g>
        <g id="logotype" transform="translate(46, 0.5)"><path fill="#297aff" d="M26.51 34L9.08 34L9.08 9.50L26.16 9.50L26.16 14.57L14.86 14.57L14.86 28.93L26.51 28.93L26.51 34ZM24.59 23.95L11.88 23.95L11.88 19.13L24.59 19.13L24.59 23.95ZM48.11 34L41.46 34L37.50 28.02L35.68 25.46L28.33 15.41L35.05 15.41L38.87 21.12L40.86 23.85L48.11 34ZM34.77 34L28.16 34L35.65 23.57L38.66 27.17L34.77 34ZM47.76 15.41L40.44 25.91L37.47 22.34L41.14 15.41L47.76 15.41ZM55.81 41.70L50.17 41.70L50.17 15.41L55.49 15.41L55.70 19.58L54.65 19.27Q54.90 18.11 55.84 17.16Q56.79 16.22 58.24 15.64Q59.69 15.06 61.30 15.06L61.30 15.06Q63.68 15.06 65.53 16.31Q67.39 17.55 68.46 19.70Q69.53 21.85 69.53 24.69L69.53 24.69Q69.53 27.49 68.46 29.66Q67.39 31.83 65.52 33.07Q63.65 34.31 61.23 34.31L61.23 34.31Q59.66 34.31 58.22 33.72Q56.79 33.13 55.81 32.11Q54.83 31.09 54.51 29.91L54.51 29.91L55.81 29.41L55.81 41.70ZM59.87 29.59L59.87 29.59Q61.13 29.59 62.07 28.98Q63.02 28.36 63.54 27.28Q64.06 26.20 64.06 24.69L64.06 24.69Q64.06 23.22 63.54 22.12Q63.02 21.02 62.09 20.40Q61.16 19.79 59.87 19.79L59.87 19.79Q58.57 19.79 57.63 20.38Q56.68 20.98 56.16 22.10Q55.63 23.22 55.63 24.69L55.63 24.69Q55.63 26.20 56.16 27.28Q56.68 28.36 57.63 28.98Q58.57 29.59 59.87 29.59ZM81.04 34.35L81.04 34.35Q77.96 34.35 75.69 33.11Q73.41 31.86 72.15 29.71Q70.89 27.56 70.89 24.80L70.89 24.80Q70.89 22.66 71.59 20.88Q72.29 19.09 73.55 17.78Q74.81 16.46 76.54 15.75Q78.28 15.03 80.34 15.03L80.34 15.03Q82.30 15.03 83.93 15.73Q85.56 16.43 86.75 17.69Q87.94 18.95 88.56 20.66Q89.20 22.38 89.13 24.41L89.13 24.41L89.09 25.91L74.28 25.91L73.48 22.77L84.54 22.77L83.95 23.43L83.95 22.73Q83.88 21.85 83.40 21.17Q82.93 20.49 82.16 20.10Q81.39 19.72 80.41 19.72L80.41 19.72Q79.05 19.72 78.08 20.26Q77.12 20.80 76.63 21.84Q76.14 22.87 76.14 24.38L76.14 24.38Q76.14 25.91 76.79 27.05Q77.44 28.19 78.68 28.82Q79.92 29.45 81.64 29.45L81.64 29.45Q82.83 29.45 83.75 29.10Q84.68 28.75 85.77 27.91L85.77 27.91L88.39 31.62Q87.31 32.56 86.08 33.16Q84.86 33.76 83.58 34.05Q82.30 34.35 81.04 34.35ZM91.65 34L91.65 34L91.65 15.41L96.97 15.41L97.14 19.20L96.02 19.61Q96.41 18.35 97.40 17.32Q98.40 16.29 99.80 15.66Q101.20 15.03 102.74 15.03L102.74 15.03Q104.84 15.03 106.28 15.89Q107.71 16.74 108.45 18.44Q109.18 20.14 109.18 22.59L109.18 22.59L109.18 34L103.55 34L103.55 23.04Q103.55 21.92 103.23 21.19Q102.92 20.45 102.27 20.09Q101.62 19.72 100.68 19.75L100.68 19.75Q99.94 19.75 99.31 19.98Q98.68 20.21 98.23 20.65Q97.77 21.09 97.51 21.64Q97.25 22.20 97.25 22.87L97.25 22.87L97.25 34L94.48 34Q93.50 34 92.80 34Q92.10 34 91.65 34ZM119.09 34.35L119.09 34.35Q116.36 34.35 114.27 33.48Q112.19 32.60 110.97 31.13L110.97 31.13L114.36 28.19Q115.45 29.27 116.81 29.78Q118.18 30.29 119.40 30.29L119.40 30.29Q119.89 30.29 120.28 30.18Q120.66 30.08 120.92 29.89Q121.19 29.70 121.33 29.43Q121.47 29.17 121.47 28.82L121.47 28.82Q121.47 28.12 120.84 27.73L120.84 27.73Q120.52 27.56 119.79 27.31Q119.05 27.07 117.90 26.75L117.90 26.75Q116.25 26.34 115.04 25.76Q113.84 25.18 113.07 24.41L113.07 24.41Q112.37 23.67 111.98 22.78Q111.60 21.89 111.60 20.77L111.60 20.77Q111.60 19.47 112.21 18.42Q112.82 17.38 113.85 16.60Q114.89 15.83 116.23 15.43Q117.58 15.03 119.02 15.03L119.02 15.03Q120.56 15.03 121.96 15.38Q123.36 15.73 124.56 16.36Q125.77 16.99 126.72 17.86L126.72 17.86L123.78 21.16Q123.15 20.56 122.36 20.09Q121.57 19.61 120.73 19.34Q119.89 19.05 119.19 19.05L119.19 19.05Q118.67 19.05 118.26 19.14Q117.86 19.23 117.58 19.42Q117.30 19.61 117.16 19.88Q117.02 20.14 117.02 20.49L117.02 20.49Q117.02 20.84 117.21 21.16Q117.41 21.47 117.76 21.68L117.76 21.68Q118.11 21.89 118.88 22.15Q119.65 22.41 120.98 22.80L120.98 22.80Q122.62 23.25 123.81 23.81Q125.00 24.38 125.70 25.14L125.70 25.14Q126.26 25.74 126.54 26.53Q126.82 27.31 126.82 28.23L126.82 28.23Q126.82 30.01 125.82 31.39Q124.83 32.77 123.08 33.56Q121.33 34.35 119.09 34.35ZM137.95 34.35L137.95 34.35Q134.87 34.35 132.60 33.11Q130.32 31.86 129.06 29.71Q127.80 27.56 127.80 24.80L127.80 24.80Q127.80 22.66 128.50 20.88Q129.20 19.09 130.46 17.78Q131.72 16.46 133.45 15.75Q135.19 15.03 137.25 15.03L137.25 15.03Q139.21 15.03 140.84 15.73Q142.47 16.43 143.66 17.69Q144.85 18.95 145.48 20.66Q146.11 22.38 146.04 24.41L146.04 24.41L146.00 25.91L131.20 25.91L130.39 22.77L141.45 22.77L140.86 23.43L140.86 22.73Q140.79 21.85 140.31 21.17Q139.84 20.49 139.07 20.10Q138.30 19.72 137.32 19.72L137.32 19.72Q135.96 19.72 134.99 20.26Q134.03 20.80 133.54 21.84Q133.05 22.87 133.05 24.38L133.05 24.38Q133.05 25.91 133.70 27.05Q134.35 28.19 135.59 28.82Q136.83 29.45 138.55 29.45L138.55 29.45Q139.74 29.45 140.66 29.10Q141.59 28.75 142.68 27.91L142.68 27.91L145.30 31.62Q144.22 32.56 142.99 33.16Q141.77 33.76 140.49 34.05Q139.21 34.35 137.95 34.35ZM170.57 34L164.62 34L164.62 14.75L157.34 14.75L157.34 9.50L178.03 9.50L178.03 14.75L170.57 14.75L170.57 34ZM184.12 34L178.48 34L178.48 15.41L183.80 15.41L184.05 21.47L183.00 20.31Q183.41 18.81 184.38 17.62Q185.34 16.43 186.63 15.73Q187.93 15.03 189.40 15.03L189.40 15.03Q190.03 15.03 190.57 15.13Q191.12 15.24 191.57 15.38L191.57 15.38L190.03 21.57Q189.65 21.33 189.00 21.17Q188.35 21.02 187.65 21.02L187.65 21.02Q186.88 21.02 186.22 21.28Q185.55 21.54 185.09 22.03Q184.64 22.52 184.38 23.18Q184.12 23.85 184.12 24.69L184.12 24.69L184.12 34ZM199.44 34.31L199.44 34.31Q197.10 34.31 195.26 33.07Q193.42 31.83 192.34 29.64Q191.25 27.45 191.25 24.69L191.25 24.69Q191.25 21.85 192.34 19.68Q193.42 17.51 195.31 16.27Q197.20 15.03 199.62 15.03L199.62 15.03Q200.95 15.03 202.05 15.41Q203.16 15.80 204.00 16.48Q204.84 17.16 205.43 18.06Q206.03 18.95 206.31 19.96L206.31 19.96L205.15 19.82L205.15 15.41L210.72 15.41L210.72 34L205.04 34L205.04 29.52L206.31 29.48Q206.03 30.46 205.39 31.34Q204.76 32.22 203.85 32.88Q202.94 33.55 201.82 33.93Q200.70 34.31 199.44 34.31ZM200.98 29.59L200.98 29.59Q202.28 29.59 203.22 28.99Q204.17 28.40 204.69 27.30Q205.22 26.20 205.22 24.69L205.22 24.69Q205.22 23.18 204.69 22.08Q204.17 20.98 203.22 20.37Q202.28 19.75 200.98 19.75L200.98 19.75Q199.72 19.75 198.80 20.37Q197.87 20.98 197.34 22.08Q196.82 23.18 196.82 24.69L196.82 24.69Q196.82 26.20 197.34 27.30Q197.87 28.40 198.80 28.99Q199.72 29.59 200.98 29.59ZM222.75 34.35L222.75 34.35Q220.06 34.35 217.92 33.09Q215.79 31.83 214.55 29.64Q213.30 27.45 213.30 24.69L213.30 24.69Q213.30 21.92 214.55 19.74Q215.79 17.55 217.92 16.29Q220.06 15.03 222.75 15.03L222.75 15.03Q225.24 15.03 227.32 15.90Q229.40 16.78 230.63 18.35L230.63 18.35L227.58 21.99Q227.09 21.43 226.43 20.95Q225.76 20.45 224.96 20.17Q224.15 19.89 223.28 19.89L223.28 19.89Q221.95 19.89 220.93 20.51Q219.92 21.12 219.36 22.20Q218.80 23.29 218.80 24.69L218.80 24.69Q218.80 26.02 219.38 27.11Q219.95 28.19 220.97 28.82Q221.98 29.45 223.28 29.45L223.28 29.45Q224.19 29.45 224.96 29.22Q225.73 28.99 226.38 28.54Q227.02 28.09 227.58 27.42L227.58 27.42L230.59 31.09Q229.40 32.60 227.29 33.48Q225.17 34.35 222.75 34.35ZM252.01 15.41L238.01 28.54L235.95 24.34L244.63 15.41L252.01 15.41ZM238.22 34L232.63 34L232.63 8.10L238.22 8.10L238.22 34ZM251.84 34L245.22 34L238.68 25.53L242.63 22.45L251.84 34ZM261.57 34.35L261.57 34.35Q258.49 34.35 256.21 33.11Q253.94 31.86 252.68 29.71Q251.42 27.56 251.42 24.80L251.42 24.80Q251.42 22.66 252.12 20.88Q252.82 19.09 254.08 17.78Q255.34 16.46 257.07 15.75Q258.80 15.03 260.87 15.03L260.87 15.03Q262.83 15.03 264.46 15.73Q266.08 16.43 267.27 17.69Q268.46 18.95 269.09 20.66Q269.72 22.38 269.65 24.41L269.65 24.41L269.62 25.91L254.81 25.91L254.01 22.77L265.07 22.77L264.47 23.43L264.47 22.73Q264.40 21.85 263.93 21.17Q263.46 20.49 262.69 20.10Q261.92 19.72 260.94 19.72L260.94 19.72Q259.57 19.72 258.61 20.26Q257.65 20.80 257.16 21.84Q256.67 22.87 256.67 24.38L256.67 24.38Q256.67 25.91 257.32 27.05Q257.96 28.19 259.21 28.82Q260.45 29.45 262.16 29.45L262.16 29.45Q263.35 29.45 264.28 29.10Q265.21 28.75 266.29 27.91L266.29 27.91L268.92 31.62Q267.83 32.56 266.61 33.16Q265.38 33.76 264.11 34.05Q262.83 34.35 261.57 34.35ZM277.81 34L272.17 34L272.17 15.41L277.49 15.41L277.74 21.47L276.69 20.31Q277.11 18.81 278.07 17.62Q279.03 16.43 280.33 15.73Q281.62 15.03 283.09 15.03L283.09 15.03Q283.72 15.03 284.27 15.13Q284.81 15.24 285.26 15.38L285.26 15.38L283.72 21.57Q283.34 21.33 282.69 21.17Q282.04 21.02 281.34 21.02L281.34 21.02Q280.57 21.02 279.91 21.28Q279.24 21.54 278.79 22.03Q278.33 22.52 278.07 23.18Q277.81 23.85 277.81 24.69L277.81 24.69L277.81 34Z"/></g>
        
      </svg>
    